<svg width="56" height="56" viewBox="0 0 56 56" fill="none" xmlns="http://www.w3.org/2000/svg">
<rect width="56" height="56" rx="28" fill="#293452" fill-opacity="0.47"/>
<path d="M28 20.5195C28.3333 20.5195 28.6042 20.6289 28.8125 20.8477C29.0208 21.0612 29.125 21.3424 29.125 21.6914V30.3633L29.0078 33.293L28.3594 32.8633L30.625 30.2461L32.3906 28.4961C32.4896 28.3919 32.6068 28.3086 32.7422 28.2461C32.8776 28.1784 33.0286 28.1445 33.1953 28.1445C33.5026 28.1445 33.7578 28.2461 33.9609 28.4492C34.1693 28.6523 34.2734 28.9128 34.2734 29.2305C34.2734 29.5378 34.1562 29.8086 33.9219 30.043L28.8359 35.1367C28.7318 35.2461 28.6042 35.3294 28.4531 35.3867C28.3021 35.4492 28.151 35.4805 28 35.4805C27.8438 35.4805 27.6901 35.4492 27.5391 35.3867C27.3932 35.3294 27.2682 35.2461 27.1641 35.1367L22.0781 30.043C21.8438 29.8086 21.7266 29.5378 21.7266 29.2305C21.7266 28.9128 21.8281 28.6523 22.0312 28.4492C22.2396 28.2461 22.4974 28.1445 22.8047 28.1445C22.9714 28.1445 23.1198 28.1784 23.25 28.2461C23.3854 28.3086 23.5052 28.3919 23.6094 28.4961L25.3672 30.2461L27.6328 32.8633L26.9844 33.293L26.8672 30.3633V21.6914C26.8672 21.3424 26.9714 21.0612 27.1797 20.8477C27.388 20.6289 27.6615 20.5195 28 20.5195Z" fill="#34A1FF"/>
</svg>
