<svg width="56" height="56" viewBox="0 0 56 56" fill="none" xmlns="http://www.w3.org/2000/svg">
<rect width="56" height="56" rx="28" fill="url(#paint0_linear_26_7985)"/>
<path d="M23.5938 16.2461C23.8073 16.0169 24.0625 15.9023 24.3594 15.9023C24.6615 15.9023 24.9219 16.0169 25.1406 16.2461L29.0703 20.2773C29.2786 20.4909 29.3828 20.7409 29.3828 21.0273C29.3828 21.3294 29.2865 21.5794 29.0938 21.7773C28.901 21.9701 28.6536 22.0664 28.3516 22.0664C28.0599 22.0664 27.8203 21.9648 27.6328 21.7617L26.0391 20.1133L25.3672 19.3242L25.4062 20.7617V30.0508C25.4062 30.3529 25.3073 30.6029 25.1094 30.8008C24.9115 30.9987 24.6641 31.0977 24.3672 31.0977C24.0651 31.0977 23.8151 30.9987 23.6172 30.8008C23.4193 30.6029 23.3203 30.3529 23.3203 30.0508V20.7617L23.3672 19.3242L22.6875 20.1133L21.1016 21.7617C20.9141 21.9648 20.6719 22.0664 20.375 22.0664C20.0729 22.0664 19.8255 21.9701 19.6328 21.7773C19.4401 21.5794 19.3438 21.3294 19.3438 21.0273C19.3438 20.7409 19.4505 20.4909 19.6641 20.2773L23.5938 16.2461ZM32.4141 39.7617C32.1953 39.9857 31.9349 40.0977 31.6328 40.0977C31.3359 40.0977 31.0807 39.9857 30.8672 39.7617L26.9375 35.7148C26.724 35.5065 26.6172 35.2565 26.6172 34.9648C26.6172 34.6628 26.7135 34.4154 26.9062 34.2227C27.1042 34.0299 27.3542 33.9336 27.6562 33.9336C27.9479 33.9336 28.1875 34.0326 28.375 34.2305L29.9609 35.8789L30.6406 36.668L30.5938 35.2305V25.9492C30.5938 25.6471 30.6927 25.3971 30.8906 25.1992C31.0885 25.0013 31.3385 24.9023 31.6406 24.9023C31.9375 24.9023 32.1849 25.0013 32.3828 25.1992C32.5807 25.3971 32.6797 25.6471 32.6797 25.9492V35.2305L32.6406 36.668L33.3203 35.8789L34.8984 34.2305C35.0859 34.0326 35.3281 33.9336 35.625 33.9336C35.9271 33.9336 36.1745 34.0299 36.3672 34.2227C36.5599 34.4154 36.6562 34.6628 36.6562 34.9648C36.6562 35.2565 36.5495 35.5065 36.3359 35.7148L32.4141 39.7617Z" fill="#F4F6FE"/>
<defs>
<linearGradient id="paint0_linear_26_7985" x1="2.5" y1="2.5" x2="91.2986" y2="8.45592" gradientUnits="userSpaceOnUse">
<stop stop-color="#44BCFF"/>
<stop offset="0.32673" stop-color="#8B44FF"/>
<stop offset="0.748506" stop-color="#FF44EC"/>
</linearGradient>
</defs>
</svg>
