<svg width="24" height="25" viewBox="0 0 24 25" fill="none" xmlns="http://www.w3.org/2000/svg">
<path d="M12 22.43C6.96001 22.43 2.85001 18.33 2.85001 13.28V11.4C2.85001 11.01 3.17001 10.7 3.55001 10.7C3.93001 10.7 4.25001 11.02 4.25001 11.4V13.28C4.25001 17.55 7.72001 21.02 11.99 21.02C16.26 21.02 19.73 17.55 19.73 13.28V11.4C19.73 11.01 20.05 10.7 20.43 10.7C20.81 10.7 21.13 11.02 21.13 11.4V13.28C21.15 18.33 17.04 22.43 12 22.43Z" fill="#34A1FF"/>
<path d="M12 2.5C8.63999 2.5 5.89999 5.24 5.89999 8.6V13.29C5.89999 16.65 8.63999 19.39 12 19.39C15.36 19.39 18.1 16.65 18.1 13.29V8.6C18.1 5.24 15.36 2.5 12 2.5ZM14.18 11.09C14.11 11.36 13.86 11.54 13.59 11.54C13.54 11.54 13.48 11.53 13.43 11.52C12.41 11.24 11.33 11.24 10.31 11.52C9.97999 11.61 9.64999 11.42 9.55999 11.09C9.46999 10.77 9.65999 10.43 9.98999 10.34C11.22 10 12.52 10 13.75 10.34C14.08 10.43 14.27 10.76 14.18 11.09ZM15.03 8.32C14.94 8.57 14.71 8.72 14.46 8.72C14.39 8.72 14.32 8.71 14.25 8.68C12.72 8.12 11.04 8.12 9.50999 8.68C9.18999 8.8 8.83999 8.64 8.71999 8.32C8.60999 8.01 8.76999 7.66 9.08999 7.54C10.89 6.89 12.87 6.89 14.66 7.54C14.98 7.66 15.14 8.01 15.03 8.32Z" fill="#34A1FF"/>
</svg>
