<svg width="24" height="25" viewBox="0 0 24 25" fill="none" xmlns="http://www.w3.org/2000/svg">
<path d="M8.71341 22.9606C8.59204 22.9606 8.48984 22.9212 8.40679 22.8424C8.32375 22.7636 8.27584 22.6651 8.26307 22.5469C8.18002 21.8771 8.09379 21.3551 8.00436 20.9808C7.92131 20.6065 7.78397 20.3241 7.59233 20.1337C7.4007 19.9432 7.10685 19.7955 6.7108 19.6904C6.32114 19.5788 5.78136 19.454 5.09146 19.3161C4.82317 19.2636 4.68902 19.1093 4.68902 18.8532C4.68902 18.7284 4.72735 18.6234 4.80401 18.538C4.88705 18.4526 4.98606 18.4001 5.10105 18.3804C5.78455 18.295 6.32114 18.2064 6.7108 18.1144C7.10046 18.0159 7.39112 17.8682 7.58275 17.6712C7.78078 17.4742 7.92131 17.182 8.00436 16.7946C8.09379 16.4006 8.18002 15.8588 8.26307 15.1693C8.29501 14.8804 8.44512 14.7359 8.71341 14.7359C8.98171 14.7359 9.13182 14.8837 9.16376 15.1792C9.24042 15.849 9.32027 16.371 9.40331 16.7453C9.48635 17.113 9.62689 17.3921 9.82491 17.5826C10.0229 17.7664 10.3168 17.9142 10.7064 18.0258C11.1025 18.1309 11.6423 18.2491 12.3258 18.3804C12.5941 18.4395 12.7282 18.5971 12.7282 18.8532C12.7282 19.1159 12.5749 19.2702 12.2683 19.3161C11.5976 19.4146 11.0706 19.5131 10.6873 19.6116C10.304 19.7101 10.0166 19.8579 9.82491 20.0549C9.63328 20.2584 9.49274 20.5507 9.40331 20.9315C9.32027 21.3189 9.24042 21.8476 9.16376 22.5174C9.13182 22.8129 8.98171 22.9606 8.71341 22.9606ZM3.98955 14.076C3.90012 14.076 3.82666 14.0464 3.76916 13.9873C3.71167 13.9282 3.67334 13.8527 3.65418 13.7608C3.57114 13.2749 3.49448 12.894 3.42422 12.6182C3.36034 12.3358 3.25813 12.1224 3.1176 11.978C2.98345 11.8269 2.77584 11.712 2.49477 11.6332C2.2137 11.5478 1.81765 11.4559 1.30662 11.3574C1.10221 11.318 1 11.2031 1 11.0127C1 10.8091 1.1054 10.6909 1.3162 10.6581C1.82085 10.5727 2.2137 10.4939 2.49477 10.4217C2.78223 10.3429 2.99623 10.2312 3.13676 10.0868C3.28368 9.94231 3.38908 9.72889 3.45296 9.44653C3.51684 9.1576 3.58391 8.76032 3.65418 8.25469C3.67973 8.04456 3.79152 7.93949 3.98955 7.93949C4.18118 7.93949 4.29297 8.04784 4.32491 8.26454C4.40157 8.75047 4.47184 9.13462 4.53571 9.41698C4.60598 9.69278 4.71138 9.90291 4.85192 10.0474C4.99245 10.1918 5.20325 10.3068 5.48432 10.3921C5.77178 10.4709 6.17102 10.5596 6.68206 10.6581C6.88647 10.6975 6.98868 10.8157 6.98868 11.0127C6.98868 11.2031 6.88008 11.318 6.66289 11.3574C6.15825 11.4428 5.7622 11.5249 5.47474 11.6037C5.19367 11.6825 4.98287 11.7974 4.84233 11.9484C4.7018 12.0929 4.5964 12.3063 4.52613 12.5886C4.46225 12.871 4.39518 13.2584 4.32491 13.7509C4.29936 13.9676 4.18757 14.076 3.98955 14.076ZM9.32666 7.3682C9.15418 7.3682 9.05517 7.27627 9.02962 7.0924C8.95935 6.66557 8.89228 6.33068 8.8284 6.08771C8.77091 5.84475 8.68148 5.66088 8.5601 5.53612C8.43873 5.41135 8.25348 5.31285 8.00436 5.24062C7.76161 5.16839 7.41986 5.08302 6.97909 4.98452C6.79384 4.95169 6.70122 4.85319 6.70122 4.68902C6.70122 4.50516 6.79384 4.40009 6.97909 4.37383C7.42625 4.30159 7.768 4.23265 8.00436 4.16698C8.2471 4.10131 8.42596 4.0061 8.54094 3.88133C8.66231 3.75 8.75174 3.55957 8.80923 3.31004C8.87311 3.06051 8.94657 2.71904 9.02962 2.28565C9.06156 2.09522 9.16057 2 9.32666 2C9.49913 2 9.59814 2.09522 9.62369 2.28565C9.68757 2.71248 9.74826 3.04409 9.80575 3.28049C9.86324 3.51689 9.95267 3.69747 10.074 3.82223C10.1954 3.947 10.3807 4.04878 10.6298 4.12758C10.8789 4.19981 11.2271 4.28189 11.6742 4.37383C11.8531 4.41323 11.9425 4.51829 11.9425 4.68902C11.9425 4.85319 11.8467 4.95169 11.6551 4.98452C11.2207 5.07645 10.8821 5.15854 10.6394 5.23077C10.3966 5.29644 10.2146 5.39165 10.0932 5.51642C9.97822 5.64118 9.88879 5.82833 9.82491 6.07786C9.76742 6.32083 9.70035 6.65572 9.62369 7.08255C9.59175 7.27298 9.49274 7.3682 9.32666 7.3682ZM17.9695 10.9142C17.7715 10.9142 17.6597 10.8124 17.6341 10.6088C17.5639 10.1163 17.4936 9.72889 17.4233 9.44653C17.3595 9.16417 17.2573 8.95075 17.1167 8.80628C16.9762 8.66182 16.7622 8.55019 16.4747 8.47139C16.1937 8.38602 15.7976 8.29409 15.2866 8.19559C15.0822 8.16276 14.98 8.04784 14.98 7.85084C14.9736 7.75891 14.9991 7.6834 15.0566 7.6243C15.1205 7.55863 15.2003 7.51923 15.2962 7.5061C15.8008 7.43386 16.1937 7.36163 16.4747 7.2894C16.7558 7.2106 16.9634 7.09568 17.0976 6.94465C17.2381 6.79362 17.3403 6.57364 17.4042 6.28471C17.4744 5.99578 17.5511 5.60178 17.6341 5.10272C17.6661 4.89259 17.7779 4.78752 17.9695 4.78752C18.1675 4.78752 18.2793 4.89587 18.3049 5.11257C18.3751 5.5985 18.4422 5.98265 18.5061 6.26501C18.57 6.54081 18.6722 6.75094 18.8127 6.8954C18.9533 7.03987 19.1672 7.15478 19.4547 7.24015C19.7485 7.31895 20.1478 7.4076 20.6524 7.5061C20.8632 7.5455 20.9686 7.66041 20.9686 7.85084C20.9686 8.04128 20.8569 8.15619 20.6333 8.19559C20.135 8.28752 19.7454 8.37289 19.4643 8.45169C19.1896 8.53049 18.9852 8.6454 18.851 8.79644C18.7169 8.9409 18.6147 9.15431 18.5444 9.43668C18.4805 9.71904 18.4007 10.1065 18.3049 10.599C18.2666 10.8091 18.1548 10.9142 17.9695 10.9142ZM20.4608 22.5568L11.3676 13.1304C11.0801 12.8349 10.9364 12.477 10.9364 12.0568C10.9364 11.6299 11.0801 11.2622 11.3676 10.9536C11.6487 10.6581 12 10.5103 12.4216 10.5103C12.8432 10.5103 13.1945 10.6581 13.4756 10.9536L22.5784 20.3799C22.8595 20.682 23 21.0432 23 21.4634C23 21.8902 22.8595 22.2547 22.5784 22.5568C22.2909 22.8523 21.9364 23 21.5148 23C21.0996 23 20.7483 22.8523 20.4608 22.5568ZM15.3057 15.6421L15.9573 14.9625L12.9869 11.8992C12.8656 11.7744 12.7346 11.6989 12.5941 11.6726C12.4535 11.6398 12.3322 11.6792 12.23 11.7908C12.1086 11.909 12.0607 12.0403 12.0862 12.1848C12.1182 12.3227 12.1948 12.4508 12.3162 12.5689L15.3057 15.6421Z" fill="#34A1FF"/>
</svg>
