<svg width="40" height="40" viewBox="0 0 40 40" fill="none" xmlns="http://www.w3.org/2000/svg">
<g clip-path="url(#clip0_22_7097)">
<path d="M20 40C31.0457 40 40 31.0457 40 20C40 8.9543 31.0457 0 20 0C8.9543 0 0 8.9543 0 20C0 31.0457 8.9543 40 20 40Z" fill="#FFC91B"/>
<path d="M32.5001 25.9454C32.4948 26.4984 32.2264 27.0158 31.7774 27.3386C31.5097 27.5365 31.212 27.69 30.8956 27.7932C30.3986 27.9491 29.8913 28.0699 29.3774 28.1545C29.355 28.3366 29.3185 28.5167 29.2683 28.6932C29.1243 29.2603 28.7256 29.7286 28.1888 29.9614C27.8882 30.0772 27.5676 30.1321 27.2456 30.1227C27.0183 30.1227 26.766 30.1045 26.5046 30.0864C26.2433 30.0682 25.9342 30.0432 25.6456 30.0432C25.3016 30.0269 24.9581 30.0818 24.6365 30.2045C24.3138 30.3545 23.9683 30.5568 23.6047 30.7682C22.5934 31.3636 21.4479 32.0454 20.0002 32.0454C18.5524 32.0454 17.407 31.3636 16.3956 30.775C16.032 30.5636 15.6866 30.3613 15.3638 30.2113C15.0422 30.0886 14.6986 30.0336 14.3548 30.05C14.0661 30.05 13.7775 30.0704 13.4957 30.0932C13.2139 30.1159 12.9866 30.1295 12.7548 30.1295C12.4328 30.1388 12.1122 30.0839 11.8116 29.9682C11.2743 29.7361 10.8754 29.2675 10.732 28.7C10.6818 28.5235 10.6453 28.3434 10.623 28.1613C10.109 28.0769 9.60165 27.9561 9.10478 27.8C8.78837 27.6968 8.49063 27.5432 8.22298 27.3454C7.77204 27.0212 7.50337 26.5008 7.50024 25.9454C7.50728 25.3371 7.87017 24.7893 8.42751 24.5454C8.64845 24.4445 8.87626 24.3594 9.10931 24.2909C10.0775 23.9796 11.507 23.5227 12.273 21.1364L11.1117 20.6818C10.1248 20.3144 9.55954 19.276 9.78665 18.2478C9.88048 17.8161 10.1216 17.4304 10.4684 17.1568C10.8067 16.8945 11.2222 16.7515 11.6502 16.75C11.7988 16.7504 11.9467 16.7679 12.0912 16.8023L12.4821 16.8932C12.5003 16.4387 12.5094 15.9592 12.5094 15.4682C12.5113 14.4704 12.7145 13.4833 13.1071 12.566C13.8709 10.7698 15.2967 9.33668 17.0889 8.56372C18.0079 8.16622 18.999 7.9627 20.0002 7.96598C20.9945 7.96723 21.978 8.17059 22.8912 8.56372C24.681 9.33551 26.1081 10.7625 26.8799 12.5524C27.2739 13.4693 27.4781 14.4566 27.4799 15.4547C27.4799 15.9456 27.4799 16.4229 27.5071 16.8797L27.8981 16.7887C28.4647 16.6534 29.0622 16.784 29.5208 17.1432C29.872 17.415 30.1171 17.8008 30.214 18.2342C30.4488 19.2669 29.882 20.3138 28.889 20.6819L27.7277 21.1365C28.5027 23.5182 29.9322 23.9728 30.8959 24.2797C31.1288 24.3486 31.3566 24.4336 31.5777 24.5342C32.1371 24.7805 32.4988 25.3338 32.5001 25.9454Z" fill="white"/>
<path d="M32.4959 25.9462C32.4906 26.4991 32.2223 27.0166 31.7732 27.3394C31.5055 27.5372 31.2078 27.6907 30.8914 27.7939C30.3945 27.9498 29.8871 28.0706 29.3732 28.1552C29.3509 28.3373 29.3144 28.5174 29.2641 28.6939C29.1202 29.261 28.7215 29.7294 28.1846 29.9621C27.8841 30.078 27.5634 30.1328 27.2414 30.1234C27.0141 30.1234 26.7619 30.1052 26.5005 30.0871C26.2391 30.069 25.93 30.0439 25.6414 30.0439C25.2975 30.0277 24.954 30.0826 24.6323 30.2052C24.3096 30.3552 23.9641 30.5575 23.6005 30.7689C22.5892 31.3644 21.4438 32.0462 19.996 32.0462C18.5483 32.0462 17.4028 31.3644 16.3915 30.7757C16.0278 30.5644 15.6824 30.362 15.3597 30.212C15.038 30.0894 14.6945 30.0344 14.3506 30.0507C14.062 30.0507 13.7734 30.0712 13.4916 30.0939C13.2098 30.1166 12.9825 30.1302 12.7506 30.1302C12.4287 30.1395 12.108 30.0847 11.8074 29.9689C11.2702 29.7368 10.8713 29.2682 10.7279 28.7007C10.6777 28.5243 10.6412 28.3441 10.6188 28.162C10.1048 28.0777 9.5975 27.9569 9.10063 27.8007C8.78422 27.6975 8.48648 27.544 8.21883 27.3462C7.76789 27.0219 7.49922 26.5016 7.49609 25.9462C7.50313 25.3378 7.86602 24.79 8.42336 24.5462C8.6443 24.4452 8.87211 24.3602 9.10516 24.2916C10.0734 23.9803 11.5029 23.5234 12.2688 21.1371L11.1075 20.6826C10.1206 20.3152 9.55539 19.2767 9.7825 18.2485C9.87633 17.8168 10.1174 17.4312 10.4643 17.1576C10.8025 16.8952 11.218 16.7522 11.6461 16.7508C11.7946 16.7511 11.9426 16.7686 12.087 16.803L12.478 16.894C12.4962 16.4394 12.5052 15.9599 12.5052 15.469C12.5071 14.4712 12.7104 13.4841 13.103 12.5667C13.8667 10.7705 15.2926 9.33742 17.0848 8.56445C18.0038 8.16695 18.9948 7.96343 19.9961 7.96671C20.9903 7.96796 21.9738 8.17132 22.887 8.56445C24.6769 9.33625 26.1039 10.7632 26.8757 12.5531C27.2698 13.4701 27.4739 14.4573 27.4757 15.4554C27.4757 15.9463 27.4757 16.4236 27.503 16.8804L27.8939 16.7894C28.4605 16.6541 29.058 16.7847 29.5166 17.144C29.8678 17.4157 30.113 17.8016 30.2098 18.2349C30.4446 19.2677 29.8779 20.3145 28.8848 20.6827L27.7235 21.1372C28.4985 23.519 29.928 23.9735 30.8917 24.2804C31.1246 24.3493 31.3524 24.4344 31.5735 24.5349C32.133 24.7812 32.4947 25.3345 32.4959 25.9462Z" stroke="black" stroke-width="1.5" stroke-miterlimit="10" stroke-linejoin="round"/>
</g>
<defs>
<clipPath id="clip0_22_7097">
<rect width="40" height="40" fill="white"/>
</clipPath>
</defs>
</svg>
