<svg width="40" height="40" viewBox="0 0 40 40" fill="none" xmlns="http://www.w3.org/2000/svg">
<g clip-path="url(#clip0_22_7100)">
<path d="M40.001 20C40.001 31.0453 31.0463 40 20 40H19.9625C8.93401 39.9793 0 31.0305 0 20C0 8.96949 8.93401 0.0197132 19.9625 0H20C31.0463 0 40.001 8.95175 40.001 20Z" fill="black"/>
<path d="M19.9625 0V40C8.93401 39.9793 0 31.0305 0 20C0 8.96949 8.93401 0.0197132 19.9625 0Z" fill="#0C0C0C"/>
<path d="M30.8827 14.4636L30.858 18.5609C30.0596 18.5512 29.2652 18.4446 28.4924 18.2436C27.3002 17.9321 26.1758 17.4031 25.1757 16.6833C25.1757 17.1022 25.1816 17.7271 25.1816 18.487C25.1816 19.4983 25.1816 20.0729 25.1757 20.6831C25.158 24.4522 25.2516 25.1816 24.9204 26.6719C24.8515 27.0313 24.7573 27.3854 24.6385 27.7315C24.0018 29.5057 22.614 30.927 21.1995 31.683C20.8048 31.8928 20.3905 32.0635 19.9625 32.1926C17.2894 33.0028 14.0772 32.2912 12.4193 30.3199L12.4085 30.308L12.3956 30.2913C10.9871 28.592 10.6796 25.9425 10.65 25.2644C10.65 25.1777 10.6441 25.0929 10.6441 25.0929C10.6224 24.1666 10.7557 23.2431 11.0384 22.3607C11.3242 21.4479 12.2655 19.5427 14.3798 18.3855C15.6984 17.6752 17.2034 17.3872 18.691 17.5605L18.6427 21.7072C18.559 21.6855 16.5334 21.2055 15.2038 22.5854C13.9993 23.8352 14.0772 25.8489 14.9317 26.9893C14.9771 27.0504 15.0254 27.1096 15.0756 27.1648C15.5537 27.698 16.1599 27.8981 16.5689 28.0381C17.1113 28.2168 17.6806 28.3001 18.2514 28.2845C18.863 28.2749 19.4579 28.0838 19.9606 27.7355C21.3504 26.7912 21.5376 25.1097 21.5445 25.0141C21.5274 19.6008 21.5113 14.1876 21.4962 8.77434V8.76941L24.1013 8.72309H24.1437L24.5212 8.71619C24.7996 9.71796 25.2714 10.6555 25.91 11.476C26.1112 11.7327 26.3285 11.9763 26.5605 12.2054C27.4372 13.0587 28.4903 13.7094 29.6457 14.1117H29.6535C30.0543 14.2581 30.4651 14.3757 30.8827 14.4636Z" fill="#FD2854"/>
<path d="M29.7048 16.3176H29.6969C28.294 16.5424 26.8578 16.4333 25.5049 15.9993C24.5602 15.6921 23.6734 15.2294 22.8811 14.6302C23.3562 17.5019 23.3562 20.4322 22.8811 23.304C22.3183 26.6789 21.9654 28.7941 20.0818 30.1474C20.0424 30.176 20.002 30.2046 19.9616 30.2312C17.3604 31.9926 13.7263 31.1183 12.3947 30.2893L12.3749 30.2775L12.3375 30.2539C11.8986 29.9631 11.4868 29.6332 11.1074 29.2682C10.4272 28.6083 9.88436 27.8203 9.51032 26.9496C9.13627 26.0788 8.93839 25.1426 8.92809 24.195C8.90278 23.2135 9.06572 22.2361 9.40811 21.3159C9.62988 20.7245 10.4539 18.6211 12.7495 17.3407C14.2194 16.5347 15.918 16.2472 17.5713 16.5246C17.5648 16.8532 17.5585 17.1817 17.5526 17.5103V17.5172L17.5142 19.5969C16.7947 19.4274 16.051 19.386 15.3171 19.4747C14.7257 19.5476 14.1462 19.6156 13.5301 20.003C12.7412 20.5108 12.1828 21.3078 11.9748 22.2227C11.8431 22.6658 11.8161 23.1335 11.8959 23.5888C11.9196 23.7189 12.093 24.6228 12.8224 25.2713C13.0679 25.4892 13.1723 25.498 13.5301 25.8322C13.8455 26.1279 13.9244 26.2698 14.2132 26.5152C14.2132 26.5152 14.2842 26.5754 14.4005 26.6601C14.4079 26.6666 14.4158 26.6725 14.4241 26.6779C14.5832 26.7942 14.7502 26.8993 14.9239 26.9923C15.6463 27.3708 16.9395 27.4112 17.8877 26.9509C19.1996 26.3132 19.9152 24.8465 19.9123 23.9752C19.8965 18.56 19.8804 13.1451 19.864 7.73056H19.9547L23.9781 7.70691C23.9752 8.02075 24.0187 8.33329 24.1072 8.63441C24.1171 8.66694 24.1269 8.6975 24.1378 8.73298C24.1486 8.76846 24.1555 8.78522 24.1644 8.80986C24.2268 8.97366 24.2989 9.13362 24.3803 9.28889L24.4364 9.40224V9.41111C24.4355 9.41366 24.4355 9.41645 24.4364 9.419L24.4453 9.43773L24.4542 9.45547C24.4595 9.46693 24.4655 9.47812 24.4719 9.48898C24.4778 9.50179 24.4847 9.51461 24.4916 9.52742C24.5291 9.59937 24.5804 9.694 24.6385 9.80045C24.675 9.86649 24.7134 9.93253 24.7528 9.99758L24.7952 10.0676C24.8159 10.103 24.8376 10.1385 24.8593 10.173L24.9381 10.2982C25.2447 10.7822 25.7829 11.5973 26.5458 12.2133C27.6182 13.0787 28.8502 13.3232 29.623 13.3961C29.6279 13.6386 29.6338 13.8811 29.6388 14.1235C29.6677 14.8556 29.6897 15.5869 29.7048 16.3176Z" fill="#24F6FA"/>
<path d="M29.7177 17.4757C27.6867 17.5502 25.6927 16.9188 24.0748 15.6887V24.3625C24.0551 24.6947 23.7643 28.3584 20.4545 30.3751C20.2909 30.4736 20.1263 30.5653 19.9617 30.6501C16.848 32.2389 13.8052 30.994 13.5046 30.8649C13.2057 30.7672 12.9192 30.6349 12.651 30.4707C12.5672 30.4184 12.4854 30.3642 12.4076 30.308L12.3376 30.2558C10.3071 28.7142 10.2233 25.5739 10.2105 25.1107C10.1888 24.1843 10.3221 23.2608 10.6048 22.3784C10.9399 21.309 11.9404 19.5062 13.9462 18.4032C15.053 17.8009 16.2968 17.4953 17.5566 17.5162V17.5231C17.5402 18.5646 17.5238 19.6064 17.5074 20.6486C17.2954 20.5914 15.9963 20.2642 14.7268 21.0635C13.9379 21.5714 13.3794 22.3683 13.1715 23.2832C13.047 23.7273 13.0201 24.193 13.0926 24.6484C13.2052 25.2107 13.4705 25.7311 13.8594 26.1525C14.023 26.3408 14.2056 26.5116 14.4045 26.6621C14.412 26.6685 14.4199 26.6745 14.4282 26.6798C14.5843 26.8003 14.7517 26.9056 14.9279 26.9942L14.9338 26.9992C15.286 27.531 15.7941 27.941 16.3884 28.1728C16.9827 28.4047 17.6342 28.4471 18.2535 28.2943C18.5421 28.2341 18.8224 28.1395 19.0884 28.0124C19.4105 27.8592 19.7058 27.6548 19.9626 27.4072C20.9601 26.4482 21.106 25.1215 21.1129 25.0417L21.0695 8.78913L21.5032 8.78026L24.1083 8.729H24.1458C24.1556 8.75463 24.1665 8.78026 24.1773 8.80589C24.2374 8.95078 24.3094 9.11144 24.3932 9.28492L24.4494 9.39827V9.40714C24.4485 9.40969 24.4485 9.41247 24.4494 9.41502L24.4582 9.43375L24.4671 9.45149C24.4724 9.46296 24.4784 9.47414 24.4848 9.485C24.4908 9.49782 24.4977 9.51063 24.5046 9.52345C24.5499 9.61215 24.6031 9.70382 24.6514 9.79647C24.6879 9.86251 24.7263 9.92855 24.7658 9.9936L24.8081 10.0636L24.8722 10.1691L24.9511 10.2942C25.4019 10.9994 25.9423 11.6431 26.5587 12.2094C27.4582 13.0329 28.5048 13.6796 29.6438 14.1156H29.6517C29.6645 14.846 29.6773 15.5783 29.6891 16.3087L29.7177 17.4757Z" fill="white"/>
<path opacity="0.17" d="M30.8828 14.4636L30.8581 18.561C30.0597 18.5512 29.2653 18.4446 28.4925 18.2436C27.3003 17.9322 26.1759 17.4032 25.1758 16.6833C25.1758 17.1022 25.1817 17.7271 25.1817 18.4871C25.1817 19.4983 25.1817 20.073 25.1758 20.6831C25.1581 24.4523 25.2517 25.1817 24.9205 26.672C24.8516 27.0314 24.7574 27.3854 24.6386 27.7316C24.0019 29.5057 22.6141 30.9271 21.1996 31.6831C20.8049 31.8929 20.3906 32.0636 19.9626 32.1926V7.73056L23.9861 7.70691C23.9832 8.02075 24.0267 8.33329 24.1152 8.63441C24.1251 8.66694 24.1349 8.6975 24.1458 8.73298L24.5233 8.72608C24.8017 9.72785 25.2735 10.6654 25.9121 11.4859C26.1133 11.7426 26.3306 11.9862 26.5626 12.2153C27.635 13.0807 28.8671 13.3252 29.6398 13.3981C29.6448 13.6406 29.6507 13.883 29.6556 14.1255C30.0561 14.2672 30.4662 14.3802 30.8828 14.4636Z" fill="black"/>
</g>
<defs>
<clipPath id="clip0_22_7100">
<rect width="40" height="40" fill="white"/>
</clipPath>
</defs>
</svg>
