<svg width="170" height="170" viewBox="0 0 170 170" fill="none" xmlns="http://www.w3.org/2000/svg">
<g clip-path="url(#clip0_38_8898)">
<path d="M159.492 63.0556C158.452 62.1565 156.879 62.2697 155.979 63.31C155.08 64.3502 155.193 65.9228 156.234 66.8226C160.79 70.7639 165.986 76.6993 164.867 82.5933C163.264 91.0334 148.79 97.0028 127.395 98.3183C130.286 96.8098 132.708 94.6287 133.305 91.485C133.96 88.0351 132.512 82.6093 121.898 76.351C114.441 71.9549 103.874 68.0249 92.1435 65.2852C90.8044 64.9738 89.465 65.8045 89.1519 67.144C88.8394 68.4834 89.6712 69.8225 91.0106 70.1353C92.6708 70.5231 94.2746 70.9262 95.8245 71.3423L92.5576 96.2162C92.3786 97.5798 93.3389 98.8303 94.7026 99.0096C94.8125 99.0239 94.9217 99.0312 95.0299 99.0312C96.2608 99.0312 97.3313 98.1184 97.496 96.865L100.665 72.7368C108.341 75.1042 114.431 77.7712 118.929 80.3806L116.523 158.152C116.481 159.527 117.561 160.676 118.936 160.718C118.962 160.719 118.988 160.719 119.014 160.719C120.353 160.719 121.46 159.655 121.501 158.306L123.196 103.497C150.172 102.674 167.532 95.2542 169.76 83.523C170.996 77.0128 167.445 69.9358 159.492 63.0556ZM128.411 90.5556C128.122 92.0783 126.366 93.5107 123.47 94.6499L123.81 83.6539C127.208 86.352 128.744 88.8038 128.411 90.5556Z" fill="#F4F6FE"/>
<path d="M27.3931 119.025C26.0991 118.56 24.673 119.233 24.2082 120.528L17.7262 138.599C17.262 139.894 17.935 141.32 19.2293 141.784C19.5072 141.884 19.7908 141.931 20.07 141.931C21.0914 141.931 22.0493 141.297 22.4142 140.281L28.8962 122.209C29.3608 120.915 28.6874 119.489 27.3931 119.025Z" fill="#F4F6FE"/>
<path d="M79.9406 62.9363C57.9577 59.5894 33.3408 61.0304 31.2384 72.1032C30.6414 75.2469 32.0947 78.1642 34.232 80.6276C14.8082 71.561 3.52989 60.7017 5.1323 52.2613C6.12509 47.0347 12.0745 42.6425 21.9643 39.7867C23.2436 43.6247 26.8674 46.4009 31.1298 46.4009C36.4567 46.4009 40.7908 42.0671 40.7908 36.7403C40.7908 36.7137 40.7891 36.6878 40.7888 36.6612C55.5299 35.5556 72.5488 36.7257 90.1932 40.0759C112.256 44.2655 132.27 51.3134 146.548 59.9211C146.951 60.1635 147.394 60.279 147.832 60.279C148.676 60.279 149.499 59.8497 149.967 59.0741C150.677 57.8963 150.298 56.3656 149.12 55.6557C143.056 52.0004 136.01 48.6212 128.246 45.609C122.98 31.2663 111.017 20.7308 96.0892 17.3556C80.1398 13.75 63.6073 19.0845 52.7547 31.2802C48.145 31.2583 43.6871 31.424 39.4141 31.776C37.7231 28.9646 34.6428 27.0793 31.1301 27.0793C26.5045 27.0793 22.63 30.3479 21.6893 34.6959C5.79604 38.9958 1.23651 46.0841 0.23973 51.3323C-1.98791 63.0635 11.4437 76.3297 36.2405 86.9841L28.344 108.999C27.8798 110.294 28.5529 111.72 29.8471 112.184C30.1251 112.284 30.4086 112.331 30.6879 112.331C31.7092 112.331 32.6671 111.697 33.032 110.681L48.6922 67.021C53.8325 66.2461 60.4739 66.0033 68.4807 66.6193L57.213 111.741C56.8796 113.076 57.6911 114.427 59.0256 114.76C59.2281 114.811 59.4313 114.835 59.6309 114.835C60.7468 114.835 61.7625 114.08 62.0451 112.948L73.4938 67.1004C75.3319 67.3102 77.2305 67.5616 79.1912 67.8601C80.5489 68.0666 81.8212 67.1329 82.0278 65.7729C82.2346 64.4136 81.2999 63.1435 79.9406 62.9363ZM94.9905 22.214C106.804 24.8849 116.533 32.6011 121.827 43.2611C112.336 39.9846 101.964 37.242 91.1226 35.183C80.2783 33.1237 69.6504 31.8716 59.6026 31.4429C69.1364 22.8604 82.2732 19.3379 94.9905 22.214ZM31.1298 32.0602C33.7104 32.0602 35.8102 34.1597 35.8102 36.7403C35.8102 39.3209 33.7107 41.4203 31.1298 41.4203C28.5495 41.4203 26.4497 39.3209 26.4497 36.7403C26.4497 34.1597 28.5492 32.0602 31.1298 32.0602ZM39.2282 78.6533C36.9511 76.5316 35.8424 74.555 36.1316 73.0326C36.4673 71.2648 38.7982 69.5415 42.9503 68.2768L39.2282 78.6533Z" fill="#F4F6FE"/>
<path d="M14.0526 57.1485C13.286 61.1867 16.2802 65.1588 20.7275 66.0035C21.2939 66.1111 21.857 66.1629 22.4099 66.1629C26.1987 66.1629 29.5143 63.7354 30.1837 60.2119V60.2115C30.9507 56.1734 27.9561 52.2013 23.5089 51.3566C19.061 50.5119 14.8196 53.1104 14.0526 57.1485ZM25.2909 59.2822C25.0405 60.5997 23.3774 61.4374 21.6568 61.1107C19.9372 60.784 18.6958 59.3951 18.9458 58.0779C19.1596 56.9533 20.4027 56.1787 21.8315 56.1787C22.0765 56.1787 22.3279 56.2016 22.5799 56.2494C24.2991 56.5761 25.5409 57.965 25.2909 59.2822Z" fill="#F4F6FE"/>
<path d="M47.7273 42.7278C45.8579 43.8158 44.6171 45.5291 44.2333 47.5512C43.8491 49.5736 44.3757 51.6226 45.7161 53.3202C46.9742 54.9137 48.818 56.0097 50.9081 56.4065C51.4746 56.514 52.043 56.5672 52.6055 56.5672C54.1192 56.5672 55.5908 56.1827 56.8701 55.4383C58.7394 54.3502 59.9802 52.6369 60.364 50.6145C61.131 46.576 58.1364 42.6039 53.6892 41.7596C51.6004 41.3628 49.4817 41.7064 47.7273 42.7278ZM55.4709 49.6855C55.3215 50.4721 54.7132 50.9306 54.3639 51.1338C53.6567 51.5459 52.7356 51.6843 51.8371 51.5137C50.9387 51.343 50.1322 50.8768 49.6248 50.234C49.3745 49.9169 48.9767 49.2671 49.1261 48.4805C49.2755 47.694 49.8835 47.2354 50.2331 47.0322C50.7418 46.7357 51.361 46.5813 52.0035 46.5813C52.2538 46.5813 52.5082 46.6049 52.7602 46.6527C54.4798 46.9791 55.7209 48.368 55.4709 49.6855Z" fill="#F4F6FE"/>
<path d="M95.8846 54.1091C95.8846 54.1087 95.8846 54.1087 95.8846 54.1091C96.6516 50.0706 93.657 46.0985 89.2098 45.2538C84.7619 44.4091 80.5206 47.0079 79.7536 51.0457C78.9869 55.0839 81.9812 59.056 86.4284 59.9007C86.9948 60.0083 87.558 60.0601 88.1108 60.0601C91.8996 60.0601 95.2156 57.6326 95.8846 54.1091ZM90.9918 53.1794C90.7415 54.4969 89.078 55.3339 87.3577 55.0079C85.6381 54.6812 84.3967 53.2923 84.6467 51.9751C84.8605 50.8505 86.1037 50.0759 87.5324 50.0759C87.7774 50.0759 88.0288 50.0988 88.2808 50.1466C90.0001 50.4733 91.2418 51.8622 90.9918 53.1794Z" fill="#F4F6FE"/>
<path d="M148.101 75.015C143.652 74.1696 139.411 76.7691 138.644 80.8066C137.877 84.8448 140.872 88.8175 145.319 89.6619C145.886 89.7694 146.449 89.8212 147.001 89.8212C150.79 89.8212 154.106 87.3938 154.775 83.8699C155.542 79.8321 152.547 75.8597 148.101 75.015ZM149.882 82.9406C149.632 84.2581 147.968 85.0961 146.248 84.7691C144.529 84.4423 143.287 83.0535 143.537 81.7363C143.787 80.4188 145.451 79.5811 147.171 79.9078C148.891 80.2345 150.132 81.6237 149.882 82.9406Z" fill="#F4F6FE"/>
<path d="M123.539 55.0233C119.091 54.1787 114.85 56.7771 114.083 60.815C113.316 64.8531 116.311 68.8256 120.758 69.6702C121.324 69.7778 121.893 69.8309 122.455 69.8309C123.969 69.8309 125.441 69.4464 126.72 68.702C128.589 67.614 129.83 65.9007 130.214 63.8786C130.598 61.8562 130.071 59.8072 128.731 58.1096C127.473 56.5162 125.629 55.4201 123.539 55.0233ZM125.321 62.9493C125.171 63.7358 124.563 64.1944 124.214 64.3976C123.506 64.8096 122.584 64.9474 121.687 64.7774C119.967 64.451 118.726 63.0621 118.976 61.7446C119.226 60.4271 120.892 59.5901 122.61 59.9162C123.508 60.0868 124.315 60.553 124.822 61.1958C125.072 61.5129 125.47 62.1623 125.321 62.9493Z" fill="#F4F6FE"/>
<path d="M36.5386 19.7072C37.0251 20.1937 37.6622 20.4367 38.2997 20.4367C38.9369 20.4367 39.5744 20.1937 40.0608 19.7072L41.3873 18.3808L42.7137 19.7072C43.2002 20.1933 43.8377 20.4367 44.4748 20.4367C45.112 20.4367 45.7495 20.1937 46.2359 19.7072C47.2085 18.7347 47.2085 17.1579 46.2359 16.1857L44.9095 14.8592L46.2359 13.5328C47.2085 12.5603 47.2085 10.9838 46.2359 10.0113C45.2634 9.03873 43.6869 9.0384 42.7141 10.0113L41.3876 11.3377L40.0612 10.0113C39.0883 9.03873 37.5118 9.03873 36.5393 10.0113C35.5668 10.9838 35.5668 12.5606 36.5393 13.5328L37.8658 14.8592L36.5393 16.1857C35.5661 17.1579 35.5661 18.7347 36.5386 19.7072Z" fill="#F4F6FE"/>
<path d="M123.651 20.2874C124.138 20.7735 124.775 21.0169 125.413 21.0169C126.05 21.0169 126.687 20.7739 127.174 20.2874L128.5 18.961L129.826 20.2874C130.313 20.7735 130.95 21.0169 131.587 21.0169C132.225 21.0169 132.862 20.7739 133.348 20.2874C134.321 19.3149 134.321 17.7381 133.348 16.7659L132.022 15.4394L133.348 14.113C134.321 13.1405 134.321 11.5636 133.348 10.5915C132.376 9.61893 130.799 9.61893 129.827 10.5915L128.5 11.9179L127.174 10.5915C126.201 9.61893 124.624 9.61893 123.652 10.5915C122.679 11.564 122.679 13.1408 123.652 14.113L124.978 15.4394L123.652 16.7659C122.679 17.7381 122.679 19.3149 123.651 20.2874Z" fill="#F4F6FE"/>
<path d="M139.523 117.161C138.55 116.188 136.974 116.188 136.001 117.161L134.675 118.487L133.348 117.161C132.376 116.188 130.799 116.188 129.827 117.161C128.854 118.133 128.854 119.71 129.827 120.682L131.153 122.009L129.827 123.336C128.854 124.308 128.854 125.885 129.827 126.857C130.313 127.343 130.95 127.587 131.588 127.587C132.225 127.587 132.862 127.344 133.349 126.857L134.675 125.531L136.002 126.857C136.488 127.344 137.125 127.587 137.763 127.587C138.4 127.587 139.037 127.344 139.524 126.857C140.496 125.885 140.496 124.308 139.524 123.336L138.197 122.009L139.524 120.683C140.496 119.71 140.496 118.133 139.523 117.161Z" fill="#F4F6FE"/>
<path d="M143.99 46.4008C149.316 46.4008 153.65 42.0671 153.65 36.7402C153.65 31.4133 149.316 27.0796 143.99 27.0796C138.663 27.0796 134.329 31.4133 134.329 36.7402C134.329 42.0671 138.663 46.4008 143.99 46.4008ZM143.99 32.0601C146.57 32.0601 148.67 34.1596 148.67 36.7402C148.67 39.3208 146.57 41.4203 143.99 41.4203C141.409 41.4203 139.309 39.3208 139.309 36.7402C139.309 34.1596 141.409 32.0601 143.99 32.0601Z" fill="#F4F6FE"/>
</g>
<defs>
<clipPath id="clip0_38_8898">
<rect width="170" height="170" fill="white"/>
</clipPath>
</defs>
</svg>
